# xmcd CD database file
#
# Track frame offsets:
#	150
#	29525
#	51135
#	75295
#	96008
#	119313
#	140323
#	156831
#	182847
#	205705
#	225534
#
# Disc length: 3251 seconds
#
# Revision: 0
# Processed by: cddbd v1.5.1PL2 Copyright (c) Steve Scherf et al.
# Submitted via: CDex 1.51
#
DISCID=830cb10b
DTITLE=Quito Pedrosa Quarteto - Noite rasa
DYEAR=2006
DGENRE=Jazz
TTITLE0=Antonico
TTITLE1=Quase
TTITLE2=Eclipse (Noites rasas)
TTITLE3=A flor e o espinho
TTITLE4=Clara
TTITLE5=Aquela tarde
TTITLE6=Nervos de aço
TTITLE7=As rosas não falam
TTITLE8=Sobre árvores
TTITLE9=Idílio
TTITLE10=A Rita
EXTD=YEAR: 2006
EXTT0=
EXTT1=
EXTT2=
EXTT3=
EXTT4=
EXTT5=
EXTT6=
EXTT7=
EXTT8=
EXTT9=
EXTT10=
PLAYORDER=
